<?xml version="1.0" encoding="us-ascii" standalone="no"?><svg xmlns="http://www.w3.org/2000/svg" xmlns:xlink="http://www.w3.org/1999/xlink" contentStyleType="text/css" height="385px" preserveAspectRatio="none" style="width:697px;height:385px;background:#FFFFFF;" version="1.1" viewBox="0 0 697 385" width="697px" zoomAndPan="magnify"><defs/><g><!--cluster visitor_pattern--><g id="cluster_visitor_pattern"><path d="M8.5,6 L131.5,6 A3.75,3.75 0 0 1 134,8.5 L141,28.2969 L687.5,28.2969 A2.5,2.5 0 0 1 690,30.7969 L690,375.5 A2.5,2.5 0 0 1 687.5,378 L8.5,378 A2.5,2.5 0 0 1 6,375.5 L6,8.5 A2.5,2.5 0 0 1 8.5,6 " fill="none" style="stroke:#000000;stroke-width:1.5;"/><line style="stroke:#000000;stroke-width:1.5;" x1="6" x2="141" y1="28.2969" y2="28.2969"/><text fill="#000000" font-family="sans-serif" font-size="14" font-weight="bold" lengthAdjust="spacing" textLength="122" x="10" y="20.9951">visitor_pattern</text></g><!--cluster visitor_pattern.dart--><g id="cluster_visitor_pattern.dart"><path d="M32.5,49 L195.5,49 A3.75,3.75 0 0 1 198,51.5 L205,71.2969 L663.5,71.2969 A2.5,2.5 0 0 1 666,73.7969 L666,351.5 A2.5,2.5 0 0 1 663.5,354 L32.5,354 A2.5,2.5 0 0 1 30,351.5 L30,51.5 A2.5,2.5 0 0 1 32.5,49 " fill="none" style="stroke:#000000;stroke-width:1.5;"/><line style="stroke:#000000;stroke-width:1.5;" x1="30" x2="205" y1="71.2969" y2="71.2969"/><text fill="#000000" font-family="sans-serif" font-size="14" font-weight="bold" lengthAdjust="spacing" textLength="162" x="34" y="63.9951">visitor_pattern.dart</text></g><!--class TeamVisitor--><g id="elem_TeamVisitor"><rect codeLine="3" fill="#F1F1F1" height="64.2969" id="TeamVisitor" rx="2.5" ry="2.5" style="stroke:#181818;stroke-width:0.5;" width="118" x="498" y="100.5"/><ellipse cx="513" cy="116.5" fill="#A9DCDF" rx="11" ry="11" style="stroke:#181818;stroke-width:1.0;"/><path d="M515.0781,118.3125 L515.4688,119.2969 L515.0781,119.2969 C514.625,119.2969 514.5156,119.3125 514.3594,119.4219 C514.1094,119.5781 513.9531,119.8594 513.9531,120.1563 C513.9531,120.4219 514.0938,120.6719 514.3125,120.8281 C514.4531,120.9531 514.6563,121 515.0781,121 L517.4375,121 C517.7969,121 518.0156,120.9688 518.1563,120.875 C518.4063,120.7344 518.5625,120.4375 518.5625,120.1563 C518.5625,119.875 518.4219,119.625 518.2031,119.4688 C518.0313,119.3281 517.875,119.2969 517.4063,119.2969 L514.0156,111.0938 L510.3438,111.0938 C509.8906,111.0938 509.7656,111.1094 509.6094,111.2031 C509.3594,111.375 509.2031,111.6563 509.2031,111.9375 C509.2031,112.2188 509.3438,112.4688 509.5625,112.6406 C509.7344,112.75 509.9063,112.7813 510.3438,112.7813 L511.4219,112.7813 L508.7813,119.2969 C508.3594,119.2969 508.2031,119.3125 508.0469,119.4219 C507.7969,119.5781 507.6406,119.8594 507.6406,120.1563 C507.6406,120.7188 508.0156,121 508.7656,121 L511.0313,121 C511.3906,121 511.6094,120.9688 511.7344,120.875 C512,120.7344 512.1406,120.4375 512.1406,120.1563 C512.1406,119.875 512.0156,119.625 511.7969,119.4531 C511.625,119.3281 511.4844,119.2969 511.0313,119.2969 L510.6406,119.2969 L511.0313,118.3125 L515.0781,118.3125 Z M514.375,116.6094 L511.7031,116.6094 L513.0469,113.3438 L514.375,116.6094 Z " fill="#000000"/><text fill="#000000" font-family="sans-serif" font-size="14" font-style="italic" lengthAdjust="spacing" textLength="86" x="527" y="121.3467">TeamVisitor</text><line style="stroke:#181818;stroke-width:0.5;" x1="499" x2="615" y1="132.5" y2="132.5"/><line style="stroke:#181818;stroke-width:0.5;" x1="499" x2="615" y1="140.5" y2="140.5"/><ellipse cx="509" cy="154.1484" fill="#84BE84" rx="3" ry="3" style="stroke:#038048;stroke-width:1.0;"/><text fill="#000000" font-family="sans-serif" font-size="14" lengthAdjust="spacing" textLength="74" x="518" y="157.4951">void visit()</text></g><!--class Player--><g id="elem_Player"><rect codeLine="7" fill="#F1F1F1" height="80.5938" id="Player" rx="2.5" ry="2.5" style="stroke:#181818;stroke-width:0.5;" width="114" x="302" y="92"/><ellipse cx="334.1" cy="108" fill="#ADD1B2" rx="11" ry="11" style="stroke:#181818;stroke-width:1.0;"/><path d="M336.4438,103.6719 C335.5063,103.2344 334.9125,103.0938 334.0375,103.0938 C331.4125,103.0938 329.4125,105.1719 329.4125,107.8906 L329.4125,109.0156 C329.4125,111.5938 331.5219,113.4844 334.4125,113.4844 C335.6313,113.4844 336.7875,113.1875 337.5375,112.6406 C338.1156,112.2344 338.4438,111.7813 338.4438,111.3906 C338.4438,110.9375 338.0531,110.5469 337.5844,110.5469 C337.3656,110.5469 337.1625,110.625 336.975,110.8125 C336.5219,111.2969 336.5219,111.2969 336.3344,111.3906 C335.9125,111.6563 335.225,111.7813 334.4594,111.7813 C332.4125,111.7813 331.1156,110.6875 331.1156,108.9844 L331.1156,107.8906 C331.1156,106.1094 332.3656,104.7969 334.1,104.7969 C334.6781,104.7969 335.2875,104.9531 335.7563,105.2031 C336.2406,105.4844 336.4125,105.7031 336.5063,106.1094 C336.5688,106.5156 336.6,106.6406 336.7406,106.7656 C336.8813,106.9063 337.1156,107.0156 337.3344,107.0156 C337.6,107.0156 337.8656,106.875 338.0375,106.6563 C338.1469,106.5 338.1781,106.3125 338.1781,105.8906 L338.1781,104.4688 C338.1781,104.0313 338.1625,103.9063 338.0688,103.75 C337.9125,103.4844 337.6313,103.3438 337.3344,103.3438 C337.0375,103.3438 336.8344,103.4375 336.6156,103.75 L336.4438,103.6719 Z " fill="#000000"/><text fill="#000000" font-family="sans-serif" font-size="14" lengthAdjust="spacing" textLength="44" x="351.9" y="112.8467">Player</text><line style="stroke:#181818;stroke-width:0.5;" x1="303" x2="415" y1="124" y2="124"/><ellipse cx="313" cy="137.6484" fill="none" rx="3" ry="3" style="stroke:#038048;stroke-width:1.0;"/><text fill="#000000" font-family="sans-serif" font-size="14" lengthAdjust="spacing" textLength="88" x="322" y="140.9951">String name</text><ellipse cx="313" cy="153.9453" fill="none" rx="3" ry="3" style="stroke:#038048;stroke-width:1.0;"/><text fill="#000000" font-family="sans-serif" font-size="14" lengthAdjust="spacing" textLength="67" x="322" y="157.292">int rating</text><line style="stroke:#181818;stroke-width:0.5;" x1="303" x2="415" y1="164.5938" y2="164.5938"/></g><!--class Team--><g id="elem_Team"><rect codeLine="12" fill="#F1F1F1" height="96.8906" id="Team" rx="2.5" ry="2.5" style="stroke:#181818;stroke-width:0.5;" width="174" x="69" y="84"/><ellipse cx="131.25" cy="100" fill="#A9DCDF" rx="11" ry="11" style="stroke:#181818;stroke-width:1.0;"/><path d="M133.3281,101.8125 L133.7188,102.7969 L133.3281,102.7969 C132.875,102.7969 132.7656,102.8125 132.6094,102.9219 C132.3594,103.0781 132.2031,103.3594 132.2031,103.6563 C132.2031,103.9219 132.3438,104.1719 132.5625,104.3281 C132.7031,104.4531 132.9063,104.5 133.3281,104.5 L135.6875,104.5 C136.0469,104.5 136.2656,104.4688 136.4063,104.375 C136.6563,104.2344 136.8125,103.9375 136.8125,103.6563 C136.8125,103.375 136.6719,103.125 136.4531,102.9688 C136.2813,102.8281 136.125,102.7969 135.6563,102.7969 L132.2656,94.5938 L128.5938,94.5938 C128.1406,94.5938 128.0156,94.6094 127.8594,94.7031 C127.6094,94.875 127.4531,95.1563 127.4531,95.4375 C127.4531,95.7188 127.5938,95.9688 127.8125,96.1406 C127.9844,96.25 128.1563,96.2813 128.5938,96.2813 L129.6719,96.2813 L127.0313,102.7969 C126.6094,102.7969 126.4531,102.8125 126.2969,102.9219 C126.0469,103.0781 125.8906,103.3594 125.8906,103.6563 C125.8906,104.2188 126.2656,104.5 127.0156,104.5 L129.2813,104.5 C129.6406,104.5 129.8594,104.4688 129.9844,104.375 C130.25,104.2344 130.3906,103.9375 130.3906,103.6563 C130.3906,103.375 130.2656,103.125 130.0469,102.9531 C129.875,102.8281 129.7344,102.7969 129.2813,102.7969 L128.8906,102.7969 L129.2813,101.8125 L133.3281,101.8125 Z M132.625,100.1094 L129.9531,100.1094 L131.2969,96.8438 L132.625,100.1094 Z " fill="#000000"/><text fill="#000000" font-family="sans-serif" font-size="14" font-style="italic" lengthAdjust="spacing" textLength="41" x="151.75" y="104.8467">Team</text><line style="stroke:#181818;stroke-width:0.5;" x1="70" x2="242" y1="116" y2="116"/><ellipse cx="80" cy="129.6484" fill="none" rx="3" ry="3" style="stroke:#038048;stroke-width:1.0;"/><text fill="#000000" font-family="sans-serif" font-size="14" lengthAdjust="spacing" textLength="88" x="89" y="132.9951">String name</text><ellipse cx="80" cy="145.9453" fill="none" rx="3" ry="3" style="stroke:#038048;stroke-width:1.0;"/><text fill="#000000" font-family="sans-serif" font-size="14" lengthAdjust="spacing" textLength="148" x="89" y="149.292">List&lt;Player&gt; players</text><line style="stroke:#181818;stroke-width:0.5;" x1="70" x2="242" y1="156.5938" y2="156.5938"/><ellipse cx="80" cy="170.2422" fill="#84BE84" rx="3" ry="3" style="stroke:#038048;stroke-width:1.0;"/><text fill="#000000" font-family="sans-serif" font-size="14" lengthAdjust="spacing" textLength="94" x="89" y="173.5889">void accept()</text></g><!--class FootballTeam--><g id="elem_FootballTeam"><rect codeLine="18" fill="#F1F1F1" height="96.8906" id="FootballTeam" rx="2.5" ry="2.5" style="stroke:#181818;stroke-width:0.5;" width="174" x="46" y="241"/><ellipse cx="80.35" cy="257" fill="#ADD1B2" rx="11" ry="11" style="stroke:#181818;stroke-width:1.0;"/><path d="M82.6938,252.6719 C81.7563,252.2344 81.1625,252.0938 80.2875,252.0938 C77.6625,252.0938 75.6625,254.1719 75.6625,256.8906 L75.6625,258.0156 C75.6625,260.5938 77.7719,262.4844 80.6625,262.4844 C81.8813,262.4844 83.0375,262.1875 83.7875,261.6406 C84.3656,261.2344 84.6938,260.7813 84.6938,260.3906 C84.6938,259.9375 84.3031,259.5469 83.8344,259.5469 C83.6156,259.5469 83.4125,259.625 83.225,259.8125 C82.7719,260.2969 82.7719,260.2969 82.5844,260.3906 C82.1625,260.6563 81.475,260.7813 80.7094,260.7813 C78.6625,260.7813 77.3656,259.6875 77.3656,257.9844 L77.3656,256.8906 C77.3656,255.1094 78.6156,253.7969 80.35,253.7969 C80.9281,253.7969 81.5375,253.9531 82.0063,254.2031 C82.4906,254.4844 82.6625,254.7031 82.7563,255.1094 C82.8188,255.5156 82.85,255.6406 82.9906,255.7656 C83.1313,255.9063 83.3656,256.0156 83.5844,256.0156 C83.85,256.0156 84.1156,255.875 84.2875,255.6563 C84.3969,255.5 84.4281,255.3125 84.4281,254.8906 L84.4281,253.4688 C84.4281,253.0313 84.4125,252.9063 84.3188,252.75 C84.1625,252.4844 83.8813,252.3438 83.5844,252.3438 C83.2875,252.3438 83.0844,252.4375 82.8656,252.75 L82.6938,252.6719 Z " fill="#000000"/><text fill="#000000" font-family="sans-serif" font-size="14" lengthAdjust="spacing" textLength="99" x="98.65" y="261.8467">FootballTeam</text><line style="stroke:#181818;stroke-width:0.5;" x1="47" x2="219" y1="273" y2="273"/><ellipse cx="57" cy="286.6484" fill="none" rx="3" ry="3" style="stroke:#038048;stroke-width:1.0;"/><text fill="#000000" font-family="sans-serif" font-size="14" lengthAdjust="spacing" textLength="88" x="66" y="289.9951">String name</text><ellipse cx="57" cy="302.9453" fill="none" rx="3" ry="3" style="stroke:#038048;stroke-width:1.0;"/><text fill="#000000" font-family="sans-serif" font-size="14" lengthAdjust="spacing" textLength="148" x="66" y="306.292">List&lt;Player&gt; players</text><line style="stroke:#181818;stroke-width:0.5;" x1="47" x2="219" y1="313.5938" y2="313.5938"/><ellipse cx="57" cy="327.2422" fill="#84BE84" rx="3" ry="3" style="stroke:#038048;stroke-width:1.0;"/><text fill="#000000" font-family="sans-serif" font-size="14" lengthAdjust="spacing" textLength="94" x="66" y="330.5889">void accept()</text></g><!--class BasketballTeam--><g id="elem_BasketballTeam"><rect codeLine="26" fill="#F1F1F1" height="96.8906" id="BasketballTeam" rx="2.5" ry="2.5" style="stroke:#181818;stroke-width:0.5;" width="174" x="255" y="241"/><ellipse cx="281.7" cy="257" fill="#ADD1B2" rx="11" ry="11" style="stroke:#181818;stroke-width:1.0;"/><path d="M284.0438,252.6719 C283.1063,252.2344 282.5125,252.0938 281.6375,252.0938 C279.0125,252.0938 277.0125,254.1719 277.0125,256.8906 L277.0125,258.0156 C277.0125,260.5938 279.1219,262.4844 282.0125,262.4844 C283.2313,262.4844 284.3875,262.1875 285.1375,261.6406 C285.7156,261.2344 286.0438,260.7813 286.0438,260.3906 C286.0438,259.9375 285.6531,259.5469 285.1844,259.5469 C284.9656,259.5469 284.7625,259.625 284.575,259.8125 C284.1219,260.2969 284.1219,260.2969 283.9344,260.3906 C283.5125,260.6563 282.825,260.7813 282.0594,260.7813 C280.0125,260.7813 278.7156,259.6875 278.7156,257.9844 L278.7156,256.8906 C278.7156,255.1094 279.9656,253.7969 281.7,253.7969 C282.2781,253.7969 282.8875,253.9531 283.3563,254.2031 C283.8406,254.4844 284.0125,254.7031 284.1063,255.1094 C284.1688,255.5156 284.2,255.6406 284.3406,255.7656 C284.4813,255.9063 284.7156,256.0156 284.9344,256.0156 C285.2,256.0156 285.4656,255.875 285.6375,255.6563 C285.7469,255.5 285.7781,255.3125 285.7781,254.8906 L285.7781,253.4688 C285.7781,253.0313 285.7625,252.9063 285.6688,252.75 C285.5125,252.4844 285.2313,252.3438 284.9344,252.3438 C284.6375,252.3438 284.4344,252.4375 284.2156,252.75 L284.0438,252.6719 Z " fill="#000000"/><text fill="#000000" font-family="sans-serif" font-size="14" lengthAdjust="spacing" textLength="116" x="298.3" y="261.8467">BasketballTeam</text><line style="stroke:#181818;stroke-width:0.5;" x1="256" x2="428" y1="273" y2="273"/><ellipse cx="266" cy="286.6484" fill="none" rx="3" ry="3" style="stroke:#038048;stroke-width:1.0;"/><text fill="#000000" font-family="sans-serif" font-size="14" lengthAdjust="spacing" textLength="88" x="275" y="289.9951">String name</text><ellipse cx="266" cy="302.9453" fill="none" rx="3" ry="3" style="stroke:#038048;stroke-width:1.0;"/><text fill="#000000" font-family="sans-serif" font-size="14" lengthAdjust="spacing" textLength="148" x="275" y="306.292">List&lt;Player&gt; players</text><line style="stroke:#181818;stroke-width:0.5;" x1="256" x2="428" y1="313.5938" y2="313.5938"/><ellipse cx="266" cy="327.2422" fill="#84BE84" rx="3" ry="3" style="stroke:#038048;stroke-width:1.0;"/><text fill="#000000" font-family="sans-serif" font-size="14" lengthAdjust="spacing" textLength="94" x="275" y="330.5889">void accept()</text></g><!--class AverageRatingVisitor--><g id="elem_AverageRatingVisitor"><rect codeLine="34" fill="#F1F1F1" height="96.8906" id="AverageRatingVisitor" rx="2.5" ry="2.5" style="stroke:#181818;stroke-width:0.5;" width="185" x="464.5" y="241"/><ellipse cx="479.5" cy="257" fill="#ADD1B2" rx="11" ry="11" style="stroke:#181818;stroke-width:1.0;"/><path d="M481.8438,252.6719 C480.9063,252.2344 480.3125,252.0938 479.4375,252.0938 C476.8125,252.0938 474.8125,254.1719 474.8125,256.8906 L474.8125,258.0156 C474.8125,260.5938 476.9219,262.4844 479.8125,262.4844 C481.0313,262.4844 482.1875,262.1875 482.9375,261.6406 C483.5156,261.2344 483.8438,260.7813 483.8438,260.3906 C483.8438,259.9375 483.4531,259.5469 482.9844,259.5469 C482.7656,259.5469 482.5625,259.625 482.375,259.8125 C481.9219,260.2969 481.9219,260.2969 481.7344,260.3906 C481.3125,260.6563 480.625,260.7813 479.8594,260.7813 C477.8125,260.7813 476.5156,259.6875 476.5156,257.9844 L476.5156,256.8906 C476.5156,255.1094 477.7656,253.7969 479.5,253.7969 C480.0781,253.7969 480.6875,253.9531 481.1563,254.2031 C481.6406,254.4844 481.8125,254.7031 481.9063,255.1094 C481.9688,255.5156 482,255.6406 482.1406,255.7656 C482.2813,255.9063 482.5156,256.0156 482.7344,256.0156 C483,256.0156 483.2656,255.875 483.4375,255.6563 C483.5469,255.5 483.5781,255.3125 483.5781,254.8906 L483.5781,253.4688 C483.5781,253.0313 483.5625,252.9063 483.4688,252.75 C483.3125,252.4844 483.0313,252.3438 482.7344,252.3438 C482.4375,252.3438 482.2344,252.4375 482.0156,252.75 L481.8438,252.6719 Z " fill="#000000"/><text fill="#000000" font-family="sans-serif" font-size="14" lengthAdjust="spacing" textLength="153" x="493.5" y="261.8467">AverageRatingVisitor</text><line style="stroke:#181818;stroke-width:0.5;" x1="465.5" x2="648.5" y1="273" y2="273"/><ellipse cx="475.5" cy="286.6484" fill="none" rx="3" ry="3" style="stroke:#038048;stroke-width:1.0;"/><text fill="#000000" font-family="sans-serif" font-size="14" lengthAdjust="spacing" textLength="96" x="484.5" y="289.9951">double rating</text><ellipse cx="475.5" cy="302.9453" fill="none" rx="3" ry="3" style="stroke:#038048;stroke-width:1.0;"/><text fill="#000000" font-family="sans-serif" font-size="14" lengthAdjust="spacing" textLength="65" x="484.5" y="306.292">int count</text><line style="stroke:#181818;stroke-width:0.5;" x1="465.5" x2="648.5" y1="313.5938" y2="313.5938"/><ellipse cx="475.5" cy="327.2422" fill="#84BE84" rx="3" ry="3" style="stroke:#038048;stroke-width:1.0;"/><text fill="#000000" font-family="sans-serif" font-size="14" lengthAdjust="spacing" textLength="74" x="484.5" y="330.5889">void visit()</text></g><!--reverse link Team to FootballTeam--><g id="link_Team_FootballTeam"><path codeLine="24" d="M145.969,201.098 C143.98,214.506 141.93,228.317 140.065,240.888 " fill="none" id="Team-backto-FootballTeam" style="stroke:#181818;stroke-width:1.0;"/><polygon fill="none" points="139.052,200.026,148.912,181.27,152.9,202.081,139.052,200.026" style="stroke:#181818;stroke-width:1.0;"/></g><!--reverse link Team to BasketballTeam--><g id="link_Team_BasketballTeam"><path codeLine="32" d="M228.693,194.078 C247.287,209.573 267.02,226.016 284.717,240.764 " fill="none" id="Team-backto-BasketballTeam" style="stroke:#181818;stroke-width:1.0;"/><polygon fill="none" points="223.953,199.24,213.07,181.058,232.916,188.485,223.953,199.24" style="stroke:#181818;stroke-width:1.0;"/></g><!--reverse link TeamVisitor to AverageRatingVisitor--><g id="link_TeamVisitor_AverageRatingVisitor"><path codeLine="40" d="M557,185.145 C557,203.173 557,223.309 557,240.984 " fill="none" id="TeamVisitor-backto-AverageRatingVisitor" style="stroke:#181818;stroke-width:1.0;"/><polygon fill="none" points="550,184.867,557,164.867,564,184.867,550,184.867" style="stroke:#181818;stroke-width:1.0;"/></g><!--SRC=[rPFFYW8n3CRlVOhWQMNH1oWYk0TF7aJ5gsGwGShMjZHnO57VtN7y0yfSEdhPKsaIldm_-C8au7577D7GaY8cb910QwMmO4be18n3PkXLbctTsqGKeUIrVYaCIqoYzOfmjxvsUd1G0DzLi2KqmrzzTL8gJs_ky8_kKaj9rcyRnvUlzGAruRfqqNt3SBlypBAChll749kN7q1e3CLEHDCGf43dFh0uZt5q70owkSn5_47-fNy0-U8p5tDIKS8jBPe8FeU-3Fl2qJsTjwoQiFVITXATZYkBjDNg6G00]--></g></svg>